<?xml version="1.0" encoding="utf-8"?>
<!-- Generator: Adobe Illustrator 17.1.0, SVG Export Plug-In . SVG Version: 6.00 Build 0)  -->
<!DOCTYPE svg PUBLIC "-//W3C//DTD SVG 1.1//EN" "http://www.w3.org/Graphics/SVG/1.1/DTD/svg11.dtd">
<svg version="1.1"
	 id="svg2" xmlns:dc="http://purl.org/dc/elements/1.1/" xmlns:cc="http://creativecommons.org/ns#" xmlns:rdf="http://www.w3.org/1999/02/22-rdf-syntax-ns#"
	 xmlns="http://www.w3.org/2000/svg" xmlns:xlink="http://www.w3.org/1999/xlink" x="0px" y="0px" width="64px" height="69px"
	 viewBox="0 0 64 69" enable-background="new 0 0 64 69" xml:space="preserve">
<path fill="#FFFFFF" d="M63.8,22.5c0.7-2,0.2-3.3,0-3.6c0.7-2.3,0.1-3.4-0.1-3.6c0.2-2.2-0.3-2.9-0.6-3.1c0.2-2-0.5-3.1-0.7-3.4
	c0.1-3.4-1-4.1-1.4-4.2c-0.2-2.8-1.8-4.5-1.8-4.5C59.1,0,59,0,59,0.1c-0.1,0-0.1,0.1-0.1,0.2c0,0,0.4,3-0.2,6s-1.5,4.4-4,7
	c-1.8,1.9-5.1,3.1-7.3,4c-0.9,0.3-1.6,0.6-2,0.8c-0.7,0.4-1.3,1.4-1.9,2.3c-0.5,0.8-1,1.7-1.6,2.1c-0.9,0.6-2,0.3-2.6,0.2
	c0-0.1,0-0.2,0-0.3c0-0.5,0-0.5,0-0.5c0-0.1-0.1-0.2-0.3-0.4l0,0c0,0,0,0-0.1-0.1c0-0.2,0.1-0.5,0-0.8c-0.1-0.2-0.2-0.3-0.3-0.4
	c0,0-0.1,0-0.1-0.1s-0.1-0.2-0.2-0.4c-0.1-0.1-0.1-0.1-0.2-0.2c0.2-0.1,0.4-0.2,0.5-0.2c0.1-0.1,0.1-0.1,0.1-0.2S38.6,19,38.5,19
	c0,0-0.2,0-0.6-0.2c-0.2-0.1-0.3-0.5-0.3-0.7c0.5-0.1,0.9-0.6,1-0.6c0-0.1,0.1-0.1,0-0.2c0-0.1-0.1-0.1-0.2-0.1c0,0-0.3-0.1-0.8-0.3
	c-0.2-0.1-0.3-0.2-0.5-0.3c0.2,0,0.4,0,0.6,0c0.8-0.1,1.3-0.8,1.3-0.8c0.1-0.1,0.1-0.2,0-0.3c-0.1-0.1-0.2-0.1-0.3,0l0,0
	c0,0-0.3,0.2-1.3-0.2c-0.7-0.3-0.8-1.7-0.9-2.8c0-0.6-0.1-1.1-0.2-1.4c-0.2-0.5-0.4-0.8-0.5-1h0.1c0.4-0.2,0.8-1.1,0.9-1.3
	c0-0.1,0-0.2-0.1-0.3c-0.1-0.1-0.2,0-0.3,0.1c0,0,0,0.1-0.2,0.2l0,0c0.4-0.4,0.4-1.4,0.4-1.5s-0.1-0.2-0.2-0.2s-0.2,0-0.2,0.1
	c0,0-0.2,0.5-0.5,0.8l0,0c0.4-0.7,0-2.1,0-2.2s-0.1-0.2-0.2-0.1c-0.1,0-0.2,0.1-0.2,0.2c0,0,0,1.2-1,1.6c-0.8,0.3-2,0.2-3.2,0.1
	c-0.5,0-0.9-0.1-1.4-0.1c-1.2,0-1.8,0.6-2.1,1c-0.1-0.2,0-0.9,0-1.2c0-0.1,0-0.2-0.1-0.2s-0.2,0-0.2,0c-0.1,0.1-0.6,0.5-0.8,0.8
	c0,0.1-0.1,0.1-0.1,0.2C26.3,8,26.2,8,26.1,7.9c-0.3-0.1-0.6,0-0.7,0S25.2,8,25.2,8.1s0.1,0.2,0.1,0.2l0,0c-0.1,0-0.1,0-0.2,0
	c-0.4,0-0.8,0.2-0.8,0.2c-0.1,0-0.1,0.1-0.1,0.2s0.1,0.1,0.2,0.1c0,0,0.2,0,0.5,0.1H25c-0.1,0-0.1,0-0.2,0c-0.4,0.1-0.9,0.6-0.9,0.6
	c-0.1,0.1-0.1,0.2,0,0.2s0.2,0.1,0.2,0.1s0.4-0.2,0.9,0h0.1c-0.5,0.2-1.1,0.5-1.9,1.1c-1.4,1-1.1,2.9-1.1,3s0.1,0.2,0.2,0.2
	s0.2-0.1,0.2-0.2c0,0,0.1-0.4,0.9-0.9c0.7-0.5,1-0.5,1.7-0.6h0.2c0.4-0.1,1,0,1.7,0.1c-0.5,0.4-1,0.6-1.5,0.7
	c-0.6,0-1.2-0.4-1.2-0.4c-0.1-0.1-0.2-0.1-0.2,0C24,12.8,24,12.9,24,13c0,0.2,0.1,0.3,0.2,0.5l0,0c-0.1,0-0.2,0-0.2,0
	c-0.1,0-0.1,0.1-0.1,0.2c0,0,0.4,1.4,1.7,1.5c0.7,0.1,1.2-0.1,1.7-0.3c0.3-0.1,0.6-0.2,1-0.3c0.3,0,0.4,0.1,0.5,0.2
	c0.1,0.2,0.1,0.6-0.1,0.9c-0.2,0.4-1.1,0.6-1.4,0.7c-0.1,0-0.1,0.1-0.2,0.1c0,0.1,0,0.2,0,0.2s0.3,0.3,0.7,0.4h0.1
	c-0.1,0.1-0.2,0.1-0.3,0.2c-0.4,0.1-0.7,0-0.8-0.1c-0.1,0-0.2,0-0.2,0c-0.1,0.1-0.1,0.1-0.1,0.2s0.2,0.4,0.4,0.6
	c0.1,0.1,0.3,0.2,0.5,0.2c-0.1,0.1-0.2,0.2-0.3,0.2c-0.2,0.1-0.7,0-0.9-0.1c-0.1,0-0.1,0-0.2,0.1s-0.1,0.1,0,0.2
	c0,0,0.1,0.3,0.5,0.5c0.2,0.1,0.3,0.1,0.4,0.1c-0.1,0.1-0.2,0.3-0.3,0.4c-0.4,0.2-1.1,0-1.1,0c-0.1,0-0.1,0-0.2,0s-0.1,0.1-0.1,0.2
	c0,0,0.1,0.4,0.4,0.6c0,0,0.1,0,0.1,0.1c-0.1,0.1-0.3,0.3-0.5,0.4c-0.4,0.2-0.8,0.2-0.8,0.2c-0.1,0-0.2,0-0.2,0.1s0,0.2,0,0.2
	s0.2,0.2,0.4,0.2c0,0,0.1,0,0.2,0c-0.1,0.1-0.1,0.1-0.1,0.2c-0.1,0.1-0.1,0.3,0,0.5c0,0.1,0,0.2,0,0.3c0,0,0,0,0,0.1
	c-0.5,0.2-1.7,0.4-2.6-0.2c-0.6-0.4-1.1-1.2-1.6-2.1c-0.6-0.9-1.2-1.9-1.9-2.3c-0.4-0.2-1.1-0.5-2-0.8c-2.2-0.8-5.6-2.1-7.3-4
	c-2.5-2.7-3.4-4.1-4-7c-0.6-3-0.2-5.9-0.2-6s0-0.2-0.1-0.2s-0.2,0-0.2,0S3.2,1.8,3,4.6C2.6,4.7,1.5,5.4,1.6,8.8
	c-0.2,0.3-1,1.3-0.7,3.4c-0.3,0.2-0.8,1-0.6,3.1c-0.2,0.3-0.8,1.3-0.1,3.6c-0.2,0.3-0.7,1.6,0,3.6c-0.1,0.3-0.6,1.3,0.2,2.8
	c0,0.3-0.2,1.3,0.4,2.5c-0.1,0.3-0.3,1.4,0.7,2.6c0,0.3,0.2,1.6,0.8,2.2c0,0.3,0.1,1.6,1.1,2.3c0,0.3,0.2,1.1,1.3,1.9
	c0.1,0.3,0.4,1.5,1.6,1.9c0,0.3,0.3,1.1,1.7,1.7c0.1,0.2,0.7,1,1.5,1.2c0.2,0.3,1.2,1.4,2.9,1.4c0.2,0.2,0.8,0.6,2.1,0.8
	c2.2,0.3,4.5-0.4,6-1.2c-0.1,0.2-0.1,0.3-0.1,0.4c-0.1,0.3-0.2,0.5-0.4,0.8c-0.4,0.5-0.6,0.7-0.6,0.7s0,0-0.1,0.1c0,0.1,0,0.1,0,0.2
	s0.1,0.1,0.2,0.1h0.2c-0.2,0.2-0.4,0.5-0.6,0.6c-0.4,0.3-1,1-1,1c-0.1,0.1-0.1,0.2,0,0.2c0,0.1,0.1,0.1,0.2,0.1c0,0,0.3-0.1,0.4-0.1
	c0,0.1,0,0.2-0.1,0.4c-0.3,0.3-0.6,0.6-0.6,0.6c-0.1,0-0.1,0.1-0.1,0.2S18,48,18,48.1c0.1,0.1,0.6,0.2,0.8,0.3h0.1
	c-0.1,0.2-0.3,0.4-0.4,0.6c-0.2,0.3-0.4,0.6-0.4,0.6c0,0.1,0,0.1,0,0.2s0.1,0.1,0.2,0.1c0,0,0.3,0,0.6,0l-0.7,1
	c-0.2,0.3-0.3,0.6-0.4,0.9s-0.2,0.6-0.4,0.8c-0.3,0.4-0.6,0.9-0.8,1.3l-0.1,0.2c-0.1,0.3-0.9,0.8-1.2,0.9c0,0-0.1,0-0.1,0.1
	c-0.5-0.4-0.8-0.6-0.8-0.7c-0.9-0.9-1.7-1.6-2.8-0.9c-0.1,0.1-0.3,0.2-0.5,0.4c-0.1-0.2-0.3-0.5-0.5-0.7c-1-1.2-2.3-2.8-3.2-3.5
	C6.6,49,5.1,48.1,5,48.1s-0.2,0-0.2,0c-0.1,0.1,0,0.2,0,0.2s0.7,0.7,0.9,1.5C5.9,50.4,6,50.8,6,51c-0.3,0-1,0-1.5,0
	C3.8,51.1,3,51.4,3,51.4c-0.1,0-0.1,0.1-0.1,0.2s0,0.1,0.1,0.2c0,0,1.7,0.6,2.9,2C6.4,54.4,7,55.2,7.4,56c0.8,1.1,1.2,1.8,1.5,1.8
	c0.1,0,0.3,0,0.4,0h0.1c0,0,1-0.5,1.6-1.1c0.2,0.2,0.5,0.5,0.9,0.9c-0.1,0.1-0.1,0.3-0.1,0.4c0,1,0.1,1.1,0.4,1.4
	c0.2,0.2,0.5,0.2,0.6,0.2c0.1,0.1,0.2,0.3,0.4,0.5c0.2,0.1,0.3,0.1,0.4,0.2s0.2,0.3,0.5,0.4c0.1,0,0.1,0.1,0.2,0.1
	c0.2,0.1,0.3,0.1,0.6,0.1c0.4-0.1,0.8-0.3,0.8-0.3l0,0c0.5,0.3,0.9,0.6,1.5,0.9c1.3,0.8,2.7,1.4,4.1,1.9c-0.5,1.1-1.6,3.4-1.7,3.6
	c0,0.1,0,0.1,0,0.2s0.1,0.1,0.2,0.1c1.5,0.2,2.6-0.5,3.2-1c-0.3,0.8-1,1.4-1,1.4c-0.1,0.1-0.1,0.1,0,0.2c0,0.1,0.1,0.1,0.2,0.1
	c1.5,0,2.5-0.7,3.1-1.2c-0.2,0.7-0.5,1-0.5,1c0,0.1-0.1,0.1,0,0.2c0,0.1,0.1,0.1,0.2,0.1c1.6,0.1,2.7-0.8,3.3-1.4
	c0,0.1,0,0.1-0.1,0.2c0,0,0,0,0,0.1l0,0c-0.3,0.5-0.6,1-0.8,1.3c-0.1,0.1-0.1,0.2-0.1,0.2l0,0c-0.1,0-0.1,0.1-0.1,0.2
	s0.1,0.1,0.2,0.1c2.6,0.1,3.6-1.1,4.1-2c0.4,0.9,1.5,2.1,4.1,2c0.1,0,0.1-0.1,0.2-0.1c0-0.1,0-0.2,0-0.2s-0.6-0.6-1-1.6
	c0-0.1,0-0.1-0.1-0.2c0.6,0.6,1.7,1.5,3.3,1.4c0.1,0,0.1-0.1,0.2-0.1c0-0.1,0-0.1,0-0.2c0,0-0.2-0.3-0.5-1c0.6,0.6,1.5,1.2,3.1,1.2
	c0.1,0,0.2,0,0.2-0.1s0-0.2,0-0.2s-0.7-0.7-1-1.4c0.6,0.5,1.7,1.2,3.2,1c0.1,0,0.1,0,0.2-0.1c0-0.1,0-0.1,0-0.2c0,0-1.2-2.5-1.7-3.7
	c1.4-0.5,2.8-1.2,4.1-1.9c0.5-0.3,1-0.6,1.5-0.9c0,0,0,0,0.1,0.1c0,0,0.4,0.2,0.8,0.3c0.3,0.1,0.4,0.1,0.6-0.1c0,0,0.1-0.1,0.2-0.1
	c0.3-0.1,0.4-0.3,0.5-0.4c0.1,0,0.2-0.1,0.4-0.2c0.3-0.1,0.4-0.3,0.4-0.5c0.2,0,0.4-0.1,0.6-0.2c0.4-0.3,0.5-0.4,0.4-1.4
	c0-0.2,0-0.3-0.1-0.5c0.4-0.4,0.7-0.6,0.9-0.8c0.6,0.6,1.6,1.1,1.6,1.1h0.1c0.1,0,0.2,0,0.4,0c0.3-0.1,0.7-0.7,1.5-1.8
	c0.5-0.7,1-1.5,1.5-2.2c1.1-1.4,2.9-2,2.9-2c0.1,0,0.1-0.1,0.1-0.2s0-0.1-0.1-0.2c0,0-0.8-0.3-1.5-0.4l0,0c-0.5-0.1-1.2-0.1-1.5,0
	c0.1-0.2,0.2-0.7,0.3-1.2c0.2-0.8,0.9-1.5,0.9-1.5l0,0c0.1-0.1,0.1-0.1,0-0.2c0-0.1-0.1-0.1-0.2,0c-0.1,0-1.6,0.9-2.4,1.6
	c-0.9,0.7-2.2,2.3-3.2,3.5c-0.2,0.2-0.3,0.5-0.5,0.7c-0.2-0.2-0.4-0.3-0.5-0.4c-1-0.8-1.8,0-2.8,0.9c-0.1,0-0.3,0.3-0.7,0.6h-0.1
	c-0.3-0.1-1-0.6-1.2-0.9l-0.1-0.2c-0.2-0.4-0.4-0.8-0.8-1.3c-0.2-0.2-0.3-0.5-0.4-0.8s-0.2-0.6-0.4-0.9c0,0-0.5-0.7-0.7-1h0.6
	c0.1,0,0.1,0,0.2-0.1c0-0.1,0-0.1,0-0.2c0,0-0.2-0.3-0.4-0.6c-0.1-0.2-0.3-0.4-0.4-0.6h0.1c0.2,0,0.6-0.2,0.8-0.3
	c0.1,0,0.1-0.1,0.1-0.2s0-0.1-0.1-0.2c0,0-0.3-0.2-0.6-0.6c-0.1-0.1-0.1-0.3-0.1-0.4l0.4,0.1c0.1,0,0.2,0,0.2-0.1s0-0.2,0-0.2
	c-0.1-0.1-0.7-0.7-1-1c-0.2-0.2-0.4-0.4-0.6-0.6h0.2c0.1,0,0.1,0,0.2-0.1c0-0.1,0-0.1,0-0.2c0,0,0,0-0.1-0.1c0,0-0.2-0.2-0.6-0.7
	c-0.2-0.3-0.3-0.5-0.4-0.8c-0.1-0.2-0.1-0.4-0.3-0.7c0-0.1-0.1-0.2-0.1-0.3c1.3,0.9,4.2,2.1,6.8,1.7c1.3-0.2,1.9-0.6,2.1-0.8
	c1.7,0,2.7-1.1,2.9-1.4c0.8-0.2,1.4-0.9,1.5-1.2c1.4-0.6,1.6-1.4,1.7-1.7c1.2-0.4,1.5-1.6,1.6-1.9c1.1-0.8,1.3-1.6,1.3-1.9
	c1-0.7,1.1-2,1.1-2.3c0.5-0.6,0.7-1.9,0.8-2.2c1-1.3,0.8-2.3,0.7-2.6c0.6-1.2,0.5-2.2,0.4-2.5C64.3,23.8,63.9,22.8,63.8,22.5z
	 M18.6,55.2L18.6,55.2L18.6,55.2z M18.5,55.2L18.5,55.2L18.5,55.2z M18.6,55.3L18.6,55.3L18.6,55.3z M20,57.3c0-0.1-0.1-0.2-0.1-0.3
	c-0.1-0.1-0.1-0.1-0.1-0.2c0-0.3,0.1-0.6-0.2-0.9c-0.1-0.1-0.3-0.2-0.5-0.2s-0.3-0.1-0.4-0.2l-0.1-0.1c0,0,0,0,0-0.1l0,0l0,0
	c0,0,0,0,0-0.1s0.1-0.1,0.2-0.2c0.2-0.2,0.3-0.4,0.3-0.6c0,0,0,0,0-0.1v-0.1c0.1-0.2,0.7-0.8,0.9-1c0.2-0.2,0.4-0.4,0.5-0.5
	c0.1-0.2,0.2-0.2,0.3-0.3c0.1-0.1,0.1-0.2,0.3-0.4c0.3-0.4,0.5-0.5,0.7-0.6c0.1,0,0.1-0.1,0.2-0.1s0.2-0.1,0.4-0.2
	c0.1-0.1,0.2-0.1,0.2-0.2c0.1-0.1,0.3-0.2,0.4-0.3l0.1,0.3c0,0.1,0.1,0.1,0.1,0.1c0.1,0,0.1,0,0.2,0c0,0,0.4-0.4,0.6-0.8
	c0.1-0.2,0.2-0.4,0.3-0.5c0,0.1,0.1,0.2,0.2,0.2c0.1,0.1,0.3,0.4,0.3,0.5s0.1,0.1,0.2,0.1s0.2-0.1,0.2-0.2c0-0.3,0.1-1,0.4-1.2
	c0.2-0.2,0.4-0.4,0.5-0.6c-0.1,0.6-0.2,1.4-0.1,1.9c0,0.1,0,0.2,0,0.3c-0.8,2.5-2,6.1-2.9,8.8c-1.2-0.5-2.2-1-3.2-1.6
	C20,57.8,20,57.5,20,57.3z M37.6,50.8c0-0.1,0-0.2,0-0.3c0-0.6-0.1-1.4-0.1-2c0.2,0.2,0.4,0.4,0.6,0.7c0.2,0.3,0.3,1,0.4,1.2
	c0,0.1,0.1,0.2,0.2,0.2s0.2,0,0.2-0.1s0.2-0.4,0.3-0.5c0.1-0.1,0.1-0.2,0.2-0.2c0.1,0.1,0.3,0.3,0.3,0.5c0.1,0.4,0.5,0.8,0.6,0.8
	c0,0,0.1,0.1,0.2,0c0.1,0,0.1-0.1,0.1-0.1s0.1-0.2,0.1-0.3c0.1,0.1,0.2,0.2,0.4,0.3c0.1,0,0.1,0.1,0.2,0.2c0.2,0.1,0.3,0.2,0.4,0.2
	s0.1,0,0.2,0.1c0.2,0.1,0.3,0.2,0.7,0.6c0.2,0.2,0.3,0.3,0.3,0.4c0.1,0.1,0.1,0.2,0.3,0.3c0.1,0.1,0.3,0.3,0.5,0.5s0.8,0.8,0.9,1
	c0,0.1,0,0.1,0,0.1s0,0,0,0.1c0,0.2,0.1,0.4,0.3,0.6c0.1,0.1,0.2,0.2,0.2,0.2v0.1l0,0c0,0,0,0,0,0.1c0,0,0,0.1-0.1,0.1
	c-0.1,0.1-0.2,0.2-0.4,0.2c-0.2,0-0.3,0.1-0.5,0.2c-0.3,0.3-0.2,0.6-0.2,0.9c0,0.1,0,0.1-0.1,0.2c0,0.1-0.1,0.1-0.1,0.3
	c-0.1,0.2,0,0.5,0,0.7c-1,0.6-2.1,1.1-3.2,1.6C39.6,57,38.4,53.4,37.6,50.8z M63.8,22.5L63.8,22.5L63.8,22.5L63.8,22.5z"/>
</svg>
