<?xml version="1.0" encoding="utf-8"?>
<!-- Generator: Adobe Illustrator 17.1.0, SVG Export Plug-In . SVG Version: 6.00 Build 0)  -->
<!DOCTYPE svg PUBLIC "-//W3C//DTD SVG 1.1//EN" "http://www.w3.org/Graphics/SVG/1.1/DTD/svg11.dtd">
<svg version="1.1" xmlns="http://www.w3.org/2000/svg" xmlns:xlink="http://www.w3.org/1999/xlink" x="0px" y="0px" width="24px"
	 height="24px" viewBox="0 0 24 24" enable-background="new 0 0 24 24" xml:space="preserve">
<g id="hot">
</g>
<g id="new">
</g>
<g id="rising">
	<path display="none" d="M12.671,1.82l10.036,20.073c0.249,0.499-0.113,1.085-0.671,1.085H1.964c-0.558,0-0.92-0.587-0.671-1.085
		L11.329,1.82C11.606,1.267,12.394,1.267,12.671,1.82z"/>
	<polyline display="none" fill="none" stroke="#FFFFFF" stroke-width="0.9375" stroke-miterlimit="10" points="0,22.885 
		11.906,18.478 24,22.885 	"/>
	<g>
		<path d="M11.905,17.979l10.813,3.94c-0.004-0.009-0.007-0.017-0.011-0.026L12.671,1.82c-0.276-0.553-1.065-0.553-1.342,0
			L1.293,21.893c-0.003,0.005-0.004,0.011-0.007,0.016L11.905,17.979z"/>
		<path d="M11.908,18.978L1.509,22.837C1.633,22.931,1.789,23,1.964,23h20.073c0.172,0,0.324-0.067,0.447-0.158L11.908,18.978z"/>
	</g>
</g>
<g id="controversial">
</g>
<g id="top">
</g>
<g id="gilded">
</g>
<g id="promoted">
</g>
</svg>
