<?xml version="1.0" encoding="utf-8"?>
<!-- Generator: Adobe Illustrator 17.1.0, SVG Export Plug-In . SVG Version: 6.00 Build 0)  -->
<!DOCTYPE svg PUBLIC "-//W3C//DTD SVG 1.1//EN" "http://www.w3.org/Graphics/SVG/1.1/DTD/svg11.dtd">
<svg version="1.1" xmlns="http://www.w3.org/2000/svg" xmlns:xlink="http://www.w3.org/1999/xlink" x="0px" y="0px" width="24px"
	 height="24px" viewBox="0 0 24 24" enable-background="new 0 0 24 24" xml:space="preserve">
<g id="hot">
	<path display="none" d="M15.101-43.317L68.629,63.739c1.33,2.66-0.604,5.789-3.578,5.789H-42.005c-2.974,0-4.908-3.129-3.578-5.789
		L7.945-43.317C9.419-46.265,13.627-46.265,15.101-43.317z"/>
	<polyline display="none" fill="none" stroke="#FFFFFF" stroke-width="8" stroke-miterlimit="10" points="-52,46.028 11.5,9.528 
		76,46.028 	"/>
	<g>
		<path d="M19.97,17.373l-8.449-4.781l-8.497,4.884l-2.208,4.428C0.566,22.402,0.929,23,1.486,23h20.073
			c0.558,0,0.92-0.598,0.671-1.096L19.97,17.373z"/>
		<path d="M11.516,10.865l7.253,4.104L12.194,1.82c-0.276-0.553-1.065-0.553-1.342,0L4.238,15.048L11.516,10.865z"/>
	</g>
</g>
<g id="new">
</g>
<g id="rising">
</g>
<g id="controversial">
</g>
<g id="top">
</g>
<g id="gilded">
</g>
<g id="promoted">
</g>
</svg>
