<?xml version="1.0" encoding="utf-8"?>
<!-- Generator: Adobe Illustrator 17.1.0, SVG Export Plug-In . SVG Version: 6.00 Build 0)  -->
<!DOCTYPE svg PUBLIC "-//W3C//DTD SVG 1.1//EN" "http://www.w3.org/Graphics/SVG/1.1/DTD/svg11.dtd">
<svg version="1.1" xmlns="http://www.w3.org/2000/svg" xmlns:xlink="http://www.w3.org/1999/xlink" x="0px" y="0px" width="24px"
	 height="24px" viewBox="0 0 24 24" enable-background="new 0 0 24 24" xml:space="preserve">
<g id="hot">
</g>
<g id="new">
</g>
<g id="rising">
</g>
<g id="controversial">
	<g display="none">
		<path display="inline" d="M1.963,21.537c-0.393,0-0.75-0.199-0.957-0.533c-0.207-0.334-0.225-0.744-0.05-1.095L10.994-0.165
			C11.186-0.548,11.571-0.787,12-0.787s0.814,0.238,1.006,0.622l10.037,20.073c0.175,0.351,0.157,0.76-0.05,1.095
			c-0.206,0.334-0.564,0.533-0.957,0.533H1.963z"/>
		<path display="inline" fill="#FFFFFF" d="M12-0.412c0.266,0,0.533,0.138,0.671,0.415l10.036,20.073
			c0.249,0.499-0.113,1.085-0.671,1.085H1.964c-0.558,0-0.92-0.587-0.671-1.085L11.329,0.003C11.467-0.273,11.734-0.412,12-0.412
			 M12-1.162c-0.572,0-1.086,0.318-1.342,0.829L0.622,19.741c-0.234,0.468-0.21,1.014,0.066,1.459
			c0.275,0.445,0.752,0.711,1.276,0.711h20.073c0.524,0,1.001-0.266,1.276-0.711c0.275-0.445,0.3-0.991,0.066-1.459L13.342-0.332
			C13.086-0.844,12.572-1.162,12-1.162L12-1.162z"/>
	</g>
	<g>
		<path d="M22.037,0.338L12,20.411L1.964,0.338H22.037L22.037,0.338 M22.036-0.412H1.964c-0.558,0-0.92,0.587-0.671,1.085
			l10.036,20.073c0.138,0.276,0.405,0.415,0.671,0.415c0.266,0,0.533-0.138,0.671-0.415L22.707,0.674
			C22.957,0.175,22.594-0.412,22.036-0.412L22.036-0.412z"/>
	</g>
	<g>
		<path d="M12.671,0.003l10.036,20.073c0.249,0.499-0.113,1.085-0.671,1.085H1.964c-0.558,0-0.92-0.587-0.671-1.085L11.329,0.003
			C11.606-0.55,12.394-0.55,12.671,0.003z"/>
		<path fill="#FFFFFF" d="M9.237,4l2.092-4.091C11.467-0.367,11.734-0.458,12-0.458c0.266,0,0.533,0.068,0.671,0.344L14.763,4h0.839
			l-2.26-4.426C13.086-0.938,12.572-1.208,12-1.208c-0.572,0-1.086,0.247-1.342,0.759L8.398,4H9.237z"/>
	</g>
	<g>
		<path fill="#FFFFFF" d="M22.036-0.412c0.558,0,0.92,0.587,0.671,1.085L12.671,20.747c-0.138,0.276-0.405,0.415-0.671,0.415
			c-0.266,0-0.533-0.138-0.671-0.415L1.293,0.674C1.043,0.175,1.406-0.412,1.964-0.412H22.036 M22.036-0.974H1.964
			c-0.458,0-0.876,0.233-1.116,0.623C0.606,0.038,0.585,0.516,0.79,0.925l10.036,20.073C11.05,21.446,11.5,21.724,12,21.724
			c0.5,0,0.95-0.278,1.174-0.726L23.21,0.925c0.205-0.41,0.183-0.887-0.057-1.277C22.912-0.741,22.495-0.974,22.036-0.974
			L22.036-0.974z"/>
	</g>
</g>
<g id="top">
</g>
<g id="gilded">
</g>
<g id="promoted">
</g>
</svg>
