<?xml version="1.0" encoding="utf-8"?>
<!-- Generator: Adobe Illustrator 17.1.0, SVG Export Plug-In . SVG Version: 6.00 Build 0)  -->
<!DOCTYPE svg PUBLIC "-//W3C//DTD SVG 1.1//EN" "http://www.w3.org/Graphics/SVG/1.1/DTD/svg11.dtd">
<svg version="1.1" xmlns="http://www.w3.org/2000/svg" xmlns:xlink="http://www.w3.org/1999/xlink" x="0px" y="0px" width="24px"
	 height="24px" viewBox="0 0 24 24" enable-background="new 0 0 24 24" xml:space="preserve">
<g id="hot">
</g>
<g id="new">
</g>
<g id="rising">
</g>
<g id="controversial">
</g>
<g id="top">
	<path display="none" fill="none" stroke="#FFFFFF" stroke-width="3.1875" stroke-miterlimit="10" d="M0,3.099L11.641,7.34
		c0.292,0.107,0.613,0.106,0.905-0.002L24,3.099"/>
	<g>
		<g>
			<path d="M1.964,23c-0.394,0-0.751-0.119-0.958-0.453c-0.206-0.334-0.224-0.703-0.048-1.054L8.059,7.312l3.165,1.163
				c0.279,0.102,0.57,0.158,0.866,0.158c0.303,0,0.598-0.05,0.878-0.155l2.995-1.107l7.079,14.161
				c0.176,0.35,0.158,0.679-0.048,1.013C22.787,22.881,22.43,23,22.036,23H1.964z"/>
			<path fill="#FFFFFF" d="M8.244,7.799l2.852,1.039c0.321,0.117,0.658,0.175,0.995,0.175c0.342,0,0.684-0.06,1.009-0.18
				l2.678-0.991l6.93,13.966C22.957,22.307,22.594,23,22.036,23H1.964c-0.558,0-0.92-0.693-0.671-1.192L8.244,7.799 M7.872,6.865
				L7.573,7.463L0.622,21.366c-0.234,0.468-0.21,1.246,0.066,1.691C0.963,23.502,1.44,24,1.964,24h20.073
				c0.524,0,1.001-0.498,1.276-0.943c0.275-0.445,0.3-1.107,0.066-1.575l-6.93-13.918l-0.301-0.63l-0.63,0.219l-2.678,0.984
				c-0.24,0.089-0.492,0.13-0.748,0.13c-0.253,0-0.501-0.046-0.738-0.132l-2.852-1.04L7.872,6.865L7.872,6.865z"/>
		</g>
		<g>
			<path d="M9.155,5.138l1.839-3.677C11.186,1.077,11.571,0.838,12,0.838s0.814,0.238,1.006,0.622l1.86,3.719l-2.775,1.027
				L9.155,5.138z"/>
			<path fill="#FFFFFF" d="M12,1.213c0.266,0,0.533,0.138,0.671,0.415l1.673,3.345L12.09,5.807L9.679,4.929l1.65-3.301
				C11.467,1.352,11.734,1.213,12,1.213 M12,0.463c-0.572,0-1.086,0.318-1.342,0.829L9.008,4.594L8.632,5.346l0.79,0.288
				l2.411,0.878l0.259,0.094l0.258-0.096l2.254-0.834l0.785-0.29l-0.374-0.748l-1.673-3.345C13.086,0.781,12.572,0.463,12,0.463
				L12,0.463z"/>
		</g>
	</g>
</g>
<g id="gilded">
</g>
<g id="promoted">
</g>
</svg>
