<?xml version="1.0" encoding="utf-8"?>
<!-- Generator: Adobe Illustrator 17.1.0, SVG Export Plug-In . SVG Version: 6.00 Build 0)  -->
<!DOCTYPE svg PUBLIC "-//W3C//DTD SVG 1.1//EN" "http://www.w3.org/Graphics/SVG/1.1/DTD/svg11.dtd">
<svg version="1.1" xmlns="http://www.w3.org/2000/svg" xmlns:xlink="http://www.w3.org/1999/xlink" x="0px" y="0px" width="24px"
	 height="24px" viewBox="0 0 24 24" enable-background="new 0 0 24 24" xml:space="preserve">
<g id="hot">
</g>
<g id="new">
</g>
<g id="rising">
</g>
<g id="controversial">
</g>
<g id="top">
</g>
<g id="gilded">
</g>
<g id="promoted">
	<g>
		<path d="M12.671,1.628l10.036,20.073c0.249,0.499-0.113,1.085-0.671,1.085H1.964c-0.558,0-0.92-0.587-0.671-1.085L11.329,1.628
			C11.606,1.075,12.394,1.075,12.671,1.628z"/>
	</g>
	<path display="none" fill="none" stroke="#FFFFFF" stroke-width="1.125" stroke-miterlimit="10" d="M7.312,13.327l4.496-2.585
		c0.096-0.055,0.213-0.055,0.31-0.001l4.569,2.586"/>
	<path fill="#FFFFFF" d="M15.927,15.403l-3.684-2.085c-0.171-0.097-0.381-0.096-0.552,0.002l-3.615,2.078
		c-0.267,0.153-0.607,0.061-0.76-0.205l-0.006-0.01c-0.153-0.267-0.061-0.607,0.205-0.76l4.014-2.307
		c0.267-0.153,0.599-0.155,0.867-0.003l4.084,2.311c0.268,0.151,0.362,0.491,0.21,0.759l-0.006,0.01
		C16.534,15.461,16.194,15.555,15.927,15.403z"/>
</g>
</svg>
