<svg fill="#ce1126" width="48" height="48" viewBox="0 0 512 512" xmlns="http://www.w3.org/2000/svg">
  <path d="m485 251c0-29-24-53-53-53c-12 0-24 5-34 13c0 0 0 0 0 0c-35-22-80-36-131-38l30-85l75 18c0 24 20 43 43 43c24 0 44-19 44-43c0-24-20-43-44-43c-18 0-33 11-39 27l-89-22l-37 105c-53 1-100 15-136 38c-10-8-22-13-34-13c-30 0-53 24-53 53c0 18 9 34 24 44c-1 5-1 11-1 16c0 76 92 138 206 138c113 0 206-62 206-138c0-5-1-10-2-15c16-10 25-27 25-45z m-159 68c-18 0-33-14-33-32c0-18 15-33 33-33c18 0 32 15 32 33c0 18-14 32-32 32z m6 56c-1 1-24 24-77 24c-53 0-74-24-75-25c-3-3-2-9 1-12c4-2 9-2 12 1c0 1 18 20 62 20c45 0 65-20 65-20c3-3 9-3 12 0c3 3 3 8 0 12z m-174-88c0-18 14-33 32-33c18 0 33 15 33 33c0 18-15 32-33 32c-18 0-32-14-32-32z"/>
</svg>
