<svg xmlns="http://www.w3.org/2000/svg" width="100" height="100"><path d="M43,125L23,128L71,127Z" fill="#d15833" stroke="#d15833" stroke-width="1.51"/><path d="M23,128L8,132L71,127Z" fill="#ce6237" stroke="#ce6237" stroke-width="1.51"/><path d="M4,-35L35,-33L94,-31Z" fill="#ffc87f" stroke="#ffc87f" stroke-width="1.51"/><path d="M35,-33L67,-28L94,-31Z" fill="#ffb173" stroke="#ffb173" stroke-width="1.51"/><path d="M71,127L8,132L111,136Z" fill="#c93e2d" stroke="#c93e2d" stroke-width="1.51"/><path d="M104,32L127,49L131,26Z" fill="#da6436" stroke="#da6436" stroke-width="1.51"/><path d="M127,49L130,65L131,26Z" fill="#cd5633" stroke="#cd5633" stroke-width="1.51"/><path d="M109,12L131,26L132,12Z" fill="#d87442" stroke="#d87442" stroke-width="1.51"/><path d="M128,-4L109,12L132,12Z" fill="#da7d4a" stroke="#da7d4a" stroke-width="1.51"/><path d="M104,106L111,136L132,105Z" fill="#c00225" stroke="#c00225" stroke-width="1.51"/><path d="M124,84L104,95L132,105Z" fill="#cc0f22" stroke="#cc0f22" stroke-width="1.51"/><path d="M130,65L124,84L132,105Z" fill="#c61f25" stroke="#c61f25" stroke-width="1.51"/><path d="M132,12L131,26L132,105Z" fill="#c95433" stroke="#c95433" stroke-width="1.51"/><path d="M131,26L130,65L132,105Z" fill="#ca3b2c" stroke="#ca3b2c" stroke-width="1.51"/><path d="M94,-31L105,-25L133,-26Z" fill="#ec9267" stroke="#ec9267" stroke-width="1.51"/><path d="M110,-9L128,-4L133,-26Z" fill="#db865b" stroke="#db865b" stroke-width="1.51"/><path d="M105,-25L110,-9L133,-26Z" fill="#e78d61" stroke="#e78d61" stroke-width="1.51"/><path d="M128,-4L132,12L133,-26Z" fill="#d08055" stroke="#d08055" stroke-width="1.51"/><path d="M132,105L111,136L133,136Z" fill="#a60026" stroke="#a60026" stroke-width="1.51"/><path d="M104,32L108,49L127,49Z" fill="#e35f32" stroke="#e35f32" stroke-width="1.51"/><path d="M104,95L104,106L132,105Z" fill="#cd0c23" stroke="#cd0c23" stroke-width="1.51"/><path d="M105,70L124,84L130,65Z" fill="#d92f29" stroke="#d92f29" stroke-width="1.51"/><path d="M127,49L108,49L130,65Z" fill="#d74f2f" stroke="#d74f2f" stroke-width="1.51"/><path d="M109,12L104,32L131,26Z" fill="#e3713b" stroke="#e3713b" stroke-width="1.51"/><path d="M108,49L105,70L130,65Z" fill="#e0472c" stroke="#e0472c" stroke-width="1.51"/><path d="M110,-9L109,12L128,-4Z" fill="#e5844f" stroke="#e5844f" stroke-width="1.51"/><path d="M105,70L104,95L124,84Z" fill="#dc2624" stroke="#dc2624" stroke-width="1.51"/><path d="M95,85L104,95L105,70Z" fill="#e42921" stroke="#e42921" stroke-width="1.51"/><path d="M104,32L93,35L108,49Z" fill="#ed6831" stroke="#ed6831" stroke-width="1.51"/><path d="M90,53L105,70L108,49Z" fill="#ec522a" stroke="#ec522a" stroke-width="1.51"/><path d="M94,8L104,32L109,12Z" fill="#ef7c3d" stroke="#ef7c3d" stroke-width="1.51"/><path d="M105,-25L92,-10L110,-9Z" fill="#f3905a" stroke="#f3905a" stroke-width="1.51"/><path d="M94,8L109,12L110,-9Z" fill="#ee874a" stroke="#ee874a" stroke-width="1.51"/><path d="M92,-10L94,8L110,-9Z" fill="#f58d4f" stroke="#f58d4f" stroke-width="1.51"/><path d="M91,125L71,127L111,136Z" fill="#c11523" stroke="#c11523" stroke-width="1.51"/><path d="M104,106L95,113L111,136Z" fill="#c80923" stroke="#c80923" stroke-width="1.51"/><path d="M95,113L91,125L111,136Z" fill="#c20b23" stroke="#c20b23" stroke-width="1.51"/><path d="M94,8L93,35L104,32Z" fill="#f27635" stroke="#f27635" stroke-width="1.51"/><path d="M93,35L90,53L108,49Z" fill="#f0632d" stroke="#f0632d" stroke-width="1.51"/><path d="M104,95L95,113L104,106Z" fill="#d61220" stroke="#d61220" stroke-width="1.51"/><path d="M94,-31L92,-10L105,-25Z" fill="#f9955f" stroke="#f9955f" stroke-width="1.51"/><path d="M83,72L95,85L105,70Z" fill="#ef3522" stroke="#ef3522" stroke-width="1.51"/><path d="M90,53L83,72L105,70Z" fill="#f24926" stroke="#f24926" stroke-width="1.51"/><path d="M95,85L95,113L104,95Z" fill="#de171e" stroke="#de171e" stroke-width="1.51"/><path d="M74,33L90,53L93,35Z" fill="#f76f32" stroke="#f76f32" stroke-width="1.51"/><path d="M72,-17L92,-10L94,-31Z" fill="#fe9b60" stroke="#fe9b60" stroke-width="1.51"/><path d="M92,-10L73,4L94,8Z" fill="#fb924d" stroke="#fb924d" stroke-width="1.51"/><path d="M74,33L93,35L94,8Z" fill="#f87d37" stroke="#f87d37" stroke-width="1.51"/><path d="M73,4L74,33L94,8Z" fill="#fd8b43" stroke="#fd8b43" stroke-width="1.51"/><path d="M83,72L76,85L95,85Z" fill="#f13b23" stroke="#f13b23" stroke-width="1.51"/><path d="M76,85L74,106L95,85Z" fill="#ec3221" stroke="#ec3221" stroke-width="1.51"/><path d="M95,85L74,106L95,113Z" fill="#e12320" stroke="#e12320" stroke-width="1.51"/><path d="M74,106L91,125L95,113Z" fill="#d72024" stroke="#d72024" stroke-width="1.51"/><path d="M67,-28L72,-17L94,-31Z" fill="#ffa369" stroke="#ffa369" stroke-width="1.51"/><path d="M71,64L83,72L90,53Z" fill="#f8562a" stroke="#f8562a" stroke-width="1.51"/><path d="M74,106L71,127L91,125Z" fill="#d62827" stroke="#d62827" stroke-width="1.51"/><path d="M72,-17L73,4L92,-10Z" fill="#ff9b58" stroke="#ff9b58" stroke-width="1.51"/><path d="M74,33L64,48L90,53Z" fill="#fb7334" stroke="#fb7334" stroke-width="1.51"/><path d="M64,48L71,64L90,53Z" fill="#fb6730" stroke="#fb6730" stroke-width="1.51"/><path d="M-9,128L-35,127L8,132Z" fill="#d3835a" stroke="#d3835a" stroke-width="1.51"/><path d="M73,4L54,10L74,33Z" fill="#ff9747" stroke="#ff9747" stroke-width="1.51"/><path d="M71,64L76,85L83,72Z" fill="#f94928" stroke="#f94928" stroke-width="1.51"/><path d="M35,-33L45,-26L67,-28Z" fill="#ffc379" stroke="#ffc379" stroke-width="1.51"/><path d="M72,-17L49,-6L73,4Z" fill="#ffa85d" stroke="#ffa85d" stroke-width="1.51"/><path d="M54,10L55,34L74,33Z" fill="#ff9541" stroke="#ff9541" stroke-width="1.51"/><path d="M46,114L71,127L74,106Z" fill="#de432b" stroke="#de432b" stroke-width="1.51"/><path d="M71,64L47,72L76,85Z" fill="#fc5a2c" stroke="#fc5a2c" stroke-width="1.51"/><path d="M47,72L48,87L76,85Z" fill="#f8602d" stroke="#f8602d" stroke-width="1.51"/><path d="M48,87L74,106L76,85Z" fill="#f24726" stroke="#f24726" stroke-width="1.51"/><path d="M55,34L64,48L74,33Z" fill="#fe863a" stroke="#fe863a" stroke-width="1.51"/><path d="M48,87L46,114L74,106Z" fill="#eb532b" stroke="#eb532b" stroke-width="1.51"/><path d="M49,-6L54,10L73,4Z" fill="#ffab57" stroke="#ffab57" stroke-width="1.51"/><path d="M67,-28L49,-6L72,-17Z" fill="#ffaf67" stroke="#ffaf67" stroke-width="1.51"/><path d="M45,-26L49,-6L67,-28Z" fill="#ffbb6f" stroke="#ffbb6f" stroke-width="1.51"/><path d="M64,48L43,55L71,64Z" fill="#fd7a35" stroke="#fd7a35" stroke-width="1.51"/><path d="M43,55L47,72L71,64Z" fill="#fd7735" stroke="#fd7735" stroke-width="1.51"/><path d="M46,114L43,125L71,127Z" fill="#d75130" stroke="#d75130" stroke-width="1.51"/><path d="M55,34L43,55L64,48Z" fill="#fd8c3c" stroke="#fd8c3c" stroke-width="1.51"/><path d="M35,92L46,114L48,87Z" fill="#ef652e" stroke="#ef652e" stroke-width="1.51"/><path d="M25,11L31,31L54,10Z" fill="#ffb452" stroke="#ffb452" stroke-width="1.51"/><path d="M54,10L31,31L55,34Z" fill="#fea547" stroke="#fea547" stroke-width="1.51"/><path d="M31,31L43,55L55,34Z" fill="#fe9c42" stroke="#fe9c42" stroke-width="1.51"/><path d="M49,-6L25,11L54,10Z" fill="#ffb95b" stroke="#ffb95b" stroke-width="1.51"/><path d="M31,31L24,45L43,55Z" fill="#fea144" stroke="#fea144" stroke-width="1.51"/><path d="M35,92L27,114L46,114Z" fill="#e86833" stroke="#e86833" stroke-width="1.51"/><path d="M24,76L35,92L47,72Z" fill="#fb7835" stroke="#fb7835" stroke-width="1.51"/><path d="M47,72L35,92L48,87Z" fill="#f86e31" stroke="#f86e31" stroke-width="1.51"/><path d="M45,-26L29,-9L49,-6Z" fill="#ffc36e" stroke="#ffc36e" stroke-width="1.51"/><path d="M29,-9L25,11L49,-6Z" fill="#ffc365" stroke="#ffc365" stroke-width="1.51"/><path d="M43,55L24,76L47,72Z" fill="#fe8239" stroke="#fe8239" stroke-width="1.51"/><path d="M35,-33L29,-9L45,-26Z" fill="#ffcb78" stroke="#ffcb78" stroke-width="1.51"/><path d="M27,114L43,125L46,114Z" fill="#df6235" stroke="#df6235" stroke-width="1.51"/><path d="M27,114L23,128L43,125Z" fill="#d86737" stroke="#d86737" stroke-width="1.51"/><path d="M24,45L24,76L43,55Z" fill="#fe933f" stroke="#fe933f" stroke-width="1.51"/><path d="M10,67L24,76L24,45Z" fill="#ff9846" stroke="#ff9846" stroke-width="1.51"/><path d="M4,-35L3,-13L29,-9Z" fill="#ffdd86" stroke="#ffdd86" stroke-width="1.51"/><path d="M25,11L16,28L31,31Z" fill="#feb954" stroke="#feb954" stroke-width="1.51"/><path d="M24,76L9,86L35,92Z" fill="#f9813a" stroke="#f9813a" stroke-width="1.51"/><path d="M13,111L27,114L35,92Z" fill="#ea7337" stroke="#ea7337" stroke-width="1.51"/><path d="M9,86L13,111L35,92Z" fill="#f47c3b" stroke="#f47c3b" stroke-width="1.51"/><path d="M4,-35L29,-9L35,-33Z" fill="#ffd683" stroke="#ffd683" stroke-width="1.51"/><path d="M8,7L25,11L29,-9Z" fill="#ffcd6a" stroke="#ffcd6a" stroke-width="1.51"/><path d="M16,28L24,45L31,31Z" fill="#feb04d" stroke="#feb04d" stroke-width="1.51"/><path d="M4,50L10,67L24,45Z" fill="#ffa950" stroke="#ffa950" stroke-width="1.51"/><path d="M3,-13L8,7L29,-9Z" fill="#ffd678" stroke="#ffd678" stroke-width="1.51"/><path d="M13,111L23,128L27,114Z" fill="#e1723e" stroke="#e1723e" stroke-width="1.51"/><path d="M8,7L16,28L25,11Z" fill="#ffc662" stroke="#ffc662" stroke-width="1.51"/><path d="M13,111L8,132L23,128Z" fill="#d87543" stroke="#d87543" stroke-width="1.51"/><path d="M10,67L9,86L24,76Z" fill="#ff8f45" stroke="#ff8f45" stroke-width="1.51"/><path d="M16,28L4,50L24,45Z" fill="#ffb253" stroke="#ffb253" stroke-width="1.51"/><path d="M9,86L-5,86L13,111Z" fill="#f78a46" stroke="#f78a46" stroke-width="1.51"/><path d="M-5,86L-13,108L13,111Z" fill="#f28a4e" stroke="#f28a4e" stroke-width="1.51"/><path d="M-12,33L4,50L16,28Z" fill="#ffbf60" stroke="#ffbf60" stroke-width="1.51"/><path d="M8,7L-8,14L16,28Z" fill="#ffcf6b" stroke="#ffcf6b" stroke-width="1.51"/><path d="M-8,14L-12,33L16,28Z" fill="#ffcb6a" stroke="#ffcb6a" stroke-width="1.51"/><path d="M-30,-34L-16,-29L4,-35Z" fill="#fff1ac" stroke="#fff1ac" stroke-width="1.51"/><path d="M-5,86L9,86L10,67Z" fill="#fe954c" stroke="#fe954c" stroke-width="1.51"/><path d="M-9,128L8,132L13,111Z" fill="#d97f4c" stroke="#d97f4c" stroke-width="1.51"/><path d="M-13,108L-9,128L13,111Z" fill="#e58552" stroke="#e58552" stroke-width="1.51"/><path d="M3,-13L-8,14L8,7Z" fill="#fedc7c" stroke="#fedc7c" stroke-width="1.51"/><path d="M-17,64L-5,86L10,67Z" fill="#ff9e57" stroke="#ff9e57" stroke-width="1.51"/><path d="M-10,56L-17,64L10,67Z" fill="#ffaa5d" stroke="#ffaa5d" stroke-width="1.51"/><path d="M4,50L-10,56L10,67Z" fill="#ffad59" stroke="#ffad59" stroke-width="1.51"/><path d="M-16,-29L3,-13L4,-35Z" fill="#ffe99b" stroke="#ffe99b" stroke-width="1.51"/><path d="M-14,-15L-8,14L3,-13Z" fill="#ffe28a" stroke="#ffe28a" stroke-width="1.51"/><path d="M-16,-29L-14,-15L3,-13Z" fill="#ffe99a" stroke="#ffe99a" stroke-width="1.51"/><path d="M-12,33L-10,56L4,50Z" fill="#ffbc65" stroke="#ffbc65" stroke-width="1.51"/><path d="M-25,-14L-29,13L-14,-15Z" fill="#ffe99a" stroke="#ffe99a" stroke-width="1.51"/><path d="M-14,-15L-29,13L-8,14Z" fill="#ffe38c" stroke="#ffe38c" stroke-width="1.51"/><path d="M-27,27L-12,33L-8,14Z" fill="#ffd177" stroke="#ffd177" stroke-width="1.51"/><path d="M-17,64L-27,73L-5,86Z" fill="#ffa262" stroke="#ffa262" stroke-width="1.51"/><path d="M-31,93L-13,108L-5,86Z" fill="#f9935a" stroke="#f9935a" stroke-width="1.51"/><path d="M-27,73L-31,93L-5,86Z" fill="#ff9e62" stroke="#ff9e62" stroke-width="1.51"/><path d="M-12,33L-34,51L-10,56Z" fill="#ffc170" stroke="#ffc170" stroke-width="1.51"/><path d="M-13,108L-28,115L-9,128Z" fill="#e68b5e" stroke="#e68b5e" stroke-width="1.51"/><path d="M-29,13L-27,27L-8,14Z" fill="#ffd983" stroke="#ffd983" stroke-width="1.51"/><path d="M-28,115L-35,127L-9,128Z" fill="#dd8b65" stroke="#dd8b65" stroke-width="1.51"/><path d="M-27,27L-34,51L-12,33Z" fill="#ffcb79" stroke="#ffcb79" stroke-width="1.51"/><path d="M-34,51L-17,64L-10,56Z" fill="#ffb76d" stroke="#ffb76d" stroke-width="1.51"/><path d="M-16,-29L-25,-14L-14,-15Z" fill="#ffeea3" stroke="#ffeea3" stroke-width="1.51"/><path d="M-31,93L-28,115L-13,108Z" fill="#f19263" stroke="#f19263" stroke-width="1.51"/><path d="M-30,-34L-25,-14L-16,-29Z" fill="#fff2ae" stroke="#fff2ae" stroke-width="1.51"/><path d="M-34,51L-27,73L-17,64Z" fill="#ffb370" stroke="#ffb370" stroke-width="1.51"/><path d="M-30,-34L-29,13L-25,-14Z" fill="#ffeea5" stroke="#ffeea5" stroke-width="1.51"/><path d="M-31,93L-35,127L-28,115Z" fill="#ec936b" stroke="#ec936b" stroke-width="1.51"/><path d="M-29,13L-34,51L-27,27Z" fill="#ffd281" stroke="#ffd281" stroke-width="1.51"/><path d="M-34,51L-31,93L-27,73Z" fill="#ffa970" stroke="#ffa970" stroke-width="1.51"/><path d="M-30,-34L-34,51L-29,13Z" fill="#ffe494" stroke="#ffe494" stroke-width="1.51"/><path d="M-34,51L-35,127L-31,93Z" fill="#fe9e6b" stroke="#fe9e6b" stroke-width="1.51"/></svg>